<svg viewBox="-960 -426.5 1920 853" width="1920" height="853" style="background-color: rgb(255, 255, 255);" xmlns="http://www.w3.org/2000/svg"><path d="M-105.48388452653859,-0.16580563400151394L-115.74135138937253,-1.6024234285018215M-115.74135138937253,-51.982165962565794L-115.74135138937253,-1.6024234285018215M-115.74135138937253,-1.6024234285018215L-135.12163839384684,16.84734759820486M-105.48388452653859,-50.54554816806549L-105.48388452653859,-0.16580563400151394M-105.48388452653859,-0.16580563400151394L-124.86417153101291,18.283965392705166" style="fill:none;stroke:rgb(0,0,0);stroke-width:1;stroke-linecap:round"></path><path d="M-105.48388452653862,-0.16580563400151752L-115.74135138937253,-1.602423428501822L-115.74135138937253,-51.982165962565794z" style="fill:rgb(238,238,238); fill-opacity: 0.4"></path><path d="M-106.2318413801135,-20.98896522222779L-116.48930824294742,-22.425583016728098M-116.48930824294742,-32.66603812433691L-116.48930824294742,-22.425583016728098M-116.48930824294742,-22.425583016728098L-120.42864872107121,-18.675384178040016" style="fill:none;stroke:rgb(0,0,0);stroke-width:1;stroke-linecap:round"></path><path d="M-106.2318413801135,-20.988965222227794L-116.4893082429474,-22.425583016728098L-116.4893082429474,-32.666038124336914z" style="fill:rgb(153,221,255); fill-opacity: 0.4"></path><path d="M-106.2318413801135,-31.229420329836596L-106.2318413801135,-20.98896522222779M-106.2318413801135,-20.98896522222779L-110.17118185823729,-17.238766383539705M-106.2318409256496,-31.2294199601217L-106.2318409256496,-20.988965074468783M-106.2318409256496,-20.988965074468783L-110.17118140377342,-17.238766235780698M-106.2318409256496,-20.988965074468783L-91.33737007203324,-19.515968566646254M-106.2318413801135,-31.229420329836596L-116.48930824294742,-32.66603812433691M-116.48930824294742,-32.66603812433691L-120.42864872107121,-28.91583928564882" style="fill:none;stroke:rgb(0,0,0);stroke-width:1;stroke-linecap:round"></path><path d="M-120.42864872107118,-18.675384178040016L-116.4893082429474,-22.425583016728098L-106.2318413801135,-20.988965222227794zM-106.2318413801135,-31.229420329836604L-106.2318413801135,-20.988965222227794L-116.4893082429474,-32.666038124336914z" style="fill:rgb(153,221,255); fill-opacity: 0.4"></path><path d="M-105.48388452653862,-50.54554816806549L-105.48388452653862,-0.16580563400151752L-115.74135138937253,-51.982165962565794z" style="fill:rgb(238,238,238); fill-opacity: 0.4"></path><path d="M-116.4893082429474,-32.666038124336914L-116.4893082429474,-22.425583016728098L-120.42864872107118,-28.91583928564882z" style="fill:rgb(153,221,255); fill-opacity: 0.4"></path><path d="M-135.1216383938468,16.84734759820486L-115.74135138937253,-1.602423428501822L-105.48388452653862,-0.16580563400151752z" style="fill:rgb(238,238,238); fill-opacity: 0.4"></path><path d="M-106.2318413801135,-31.229420329836596L-110.17118185823729,-27.47922149114851M-106.2318409256496,-31.2294199601217L-110.17118140377342,-27.47922112143362M-106.2318409256496,-31.2294199601217L-91.33737007203324,-19.515968566646254" style="fill:none;stroke:rgb(0,0,0);stroke-width:1;stroke-linecap:round"></path><path d="M-116.4893082429474,-22.425583016728098L-120.42864872107118,-18.675384178040016L-120.42864872107118,-28.91583928564882z" style="fill:rgb(153,221,255); fill-opacity: 0.4"></path><path d="M-106.23184147270642,-31.22942034280478L-106.23184147270642,-20.988965235195973L-110.17118195083023,-17.238766396507888z" style="fill:rgb(255,187,187); fill-opacity: 0.4"></path><path d="M-110.17118185823729,-17.23876638353971L-106.2318413801135,-20.988965222227794L-106.2318413801135,-31.229420329836604z" style="fill:rgb(153,221,255); fill-opacity: 0.4"></path><path d="M-46.70879117832466,4.2752828049204235L-89.32496274605452,-1.693359475515274M-89.32496274605452,-38.9996481281603L-89.32496274605452,-1.693359475515274M-89.32496274605452,-1.693359475515274L-103.67609962753357,11.968728674938085" style="fill:none;stroke:rgb(0,0,0);stroke-width:1;stroke-linecap:round"></path><path d="M-110.17118185823729,-17.23876638353971L-120.42864872107118,-18.675384178040016L-106.2318413801135,-20.988965222227794z" style="fill:rgb(153,221,255); fill-opacity: 0.4"></path><path d="M-105.48388452653859,-50.54554816806549L-115.74135138937253,-51.982165962565794M-115.74135138937253,-51.982165962565794L-135.12163839384684,-33.53239493585911M-120.42864872107121,-28.91583928564882L-120.42864872107121,-18.675384178040016M-120.42864872107121,-18.675384178040016L-110.17118185823729,-17.238766383539705" style="fill:none;stroke:rgb(0,0,0);stroke-width:1;stroke-linecap:round"></path><path d="M-110.17118185823729,-27.479221491148518L-106.2318413801135,-31.229420329836604L-116.4893082429474,-32.666038124336914z" style="fill:rgb(153,221,255); fill-opacity: 0.4"></path><path d="M-106.23184147270642,-20.988965235195973L-106.23184147270642,-31.22942034280478L-91.3373706868822,-19.51596871691336z" style="fill:rgb(255,187,187); fill-opacity: 0.4"></path><path d="M-120.42864872107118,-28.91583928564882L-110.17118185823729,-27.479221491148518L-116.4893082429474,-32.666038124336914z" style="fill:rgb(153,221,255); fill-opacity: 0.4"></path><path d="M-106.23184147270642,-31.22942034280478L-110.17118195083023,-17.238766396507888L-110.17118195083023,-27.4792215041167z" style="fill:rgb(255,187,187); fill-opacity: 0.4"></path><path d="M-110.17118185823729,-27.479221491148518L-110.17118185823729,-17.23876638353971L-106.2318413801135,-31.229420329836604z" style="fill:rgb(153,221,255); fill-opacity: 0.4"></path><path d="M-110.17118195083023,-17.238766396507888L-106.23184147270642,-20.988965235195973L-91.3373706868822,-19.51596871691336z" style="fill:rgb(255,187,187); fill-opacity: 0.4"></path><path d="M-105.48388452653859,-50.54554816806549L-124.86417153101291,-32.0957771413588M-110.17118185823729,-27.47922149114851L-110.17118185823729,-17.238766383539705M-110.17118140377342,-17.238766235780698L-110.17118140377342,-27.47922112143362M-110.17118140377342,-17.238766235780698L-91.33737007203324,-19.515968566646254" style="fill:none;stroke:rgb(0,0,0);stroke-width:1;stroke-linecap:round"></path><path d="M-120.42864872107118,-18.675384178040016L-110.17118185823729,-17.23876638353971L-110.17118185823729,-27.479221491148518zM-120.42864872107118,-28.91583928564882L-120.42864872107118,-18.675384178040016L-110.17118185823729,-27.479221491148518z" style="fill:rgb(153,221,255); fill-opacity: 0.4"></path><path d="M-120.42864872107121,-28.91583928564882L-110.17118185823729,-27.47922149114851" style="fill:none;stroke:rgb(0,0,0);stroke-width:1;stroke-linecap:round"></path><path d="M-106.23184147270642,-31.22942034280478L-110.17118195083023,-27.4792215041167L-91.3373706868822,-19.51596871691336z" style="fill:rgb(255,187,187); fill-opacity: 0.4"></path><path d="M-124.86417153101291,18.283965392705163L-105.48388452653862,-0.16580563400151752L-105.48388452653862,-50.54554816806549z" style="fill:rgb(238,238,238); fill-opacity: 0.4"></path><path d="M-110.17118140377342,-27.47922112143362L-91.33737007203324,-19.515968566646254" style="fill:none;stroke:rgb(0,0,0);stroke-width:1;stroke-linecap:round"></path><path d="M-110.17118195083023,-27.4792215041167L-110.17118195083023,-17.238766396507888L-91.3373706868822,-19.51596871691336z" style="fill:rgb(255,187,187); fill-opacity: 0.4"></path><path d="M-115.74135138937253,-51.982165962565794L-115.74135138937253,-1.602423428501822L-135.1216383938468,-33.53239493585912zM-46.70879117832465,4.2752828049204235L-89.32496274605452,-1.6933594755152748L-89.32496274605452,-38.99964812816031z" style="fill:rgb(238,238,238); fill-opacity: 0.4"></path><path d="M-46.70879117832466,-33.03100584772461L-89.32496274605452,-38.9996481281603M-89.32496274605452,-38.9996481281603L-103.67609962753357,-25.33755997770695" style="fill:none;stroke:rgb(0,0,0);stroke-width:1;stroke-linecap:round"></path><path d="M-124.86417153101291,18.283965392705163L-135.1216383938468,16.84734759820486L-105.48388452653862,-0.16580563400151752z" style="fill:rgb(238,238,238); fill-opacity: 0.4"></path><path d="M-46.70879117832466,-33.03100584772461L-46.70879117832466,4.2752828049204235M-46.70879117832466,4.2752828049204235L-61.05992805980371,17.937370955373787" style="fill:none;stroke:rgb(0,0,0);stroke-width:1;stroke-linecap:round"></path><path d="M-103.67609962753357,11.968728674938085L-89.32496274605452,-1.6933594755152748L-46.70879117832465,4.2752828049204235z" style="fill:rgb(238,238,238); fill-opacity: 0.4"></path><path d="M-52.76605227334209,4.453708918123302L-95.38222384107196,-1.5149333623123968M-95.38222384107196,-6.169685683952763L-95.38222384107196,-1.5149333623123968M-95.38222384107196,-1.5149333623123968L-97.17283314931007,0.18970247345491434M-52.76605227334209,-0.20104340351706468L-95.38222384107196,-6.169685683952763M-95.38222384107196,-6.169685683952763L-97.17283314931007,-4.465049848185452" style="fill:none;stroke:rgb(0,0,0);stroke-width:1;stroke-linecap:round"></path><path d="M-124.86417153101291,-32.09577714135881L-105.48388452653862,-50.54554816806549L-115.74135138937253,-51.982165962565794zM-115.74135138937253,-1.602423428501822L-135.1216383938468,16.84734759820486L-135.1216383938468,-33.53239493585912z" style="fill:rgb(238,238,238); fill-opacity: 0.4"></path><path d="M-95.38222384107196,-6.169685683952763L-95.38222384107196,-1.5149333623123962L-97.17283314931005,-4.465049848185452z" style="fill:rgb(153,221,255); fill-opacity: 0.4"></path><path d="M-46.70879117832465,-33.031005847724614L-46.70879117832465,4.2752828049204235L-89.32496274605452,-38.99964812816031z" style="fill:rgb(238,238,238); fill-opacity: 0.4"></path><path d="M-95.38222384107196,-1.5149333623123962L-97.17283314931005,0.18970247345491506L-97.17283314931005,-4.465049848185452z" style="fill:rgb(153,221,255); fill-opacity: 0.4"></path><path d="M-97.17283314931007,-4.465049848185452L-97.17283314931007,0.18970247345491434M-97.17283314931007,0.18970247345491434L-54.55666158158019,6.158344753890613" style="fill:none;stroke:rgb(0,0,0);stroke-width:1;stroke-linecap:round"></path><path d="M-89.32496274605452,-38.99964812816031L-89.32496274605452,-1.6933594755152748L-103.67609962753357,-25.337559977706945z" style="fill:rgb(238,238,238); fill-opacity: 0.4"></path><path d="M-52.76605227334208,4.453708918123302L-95.38222384107196,-1.5149333623123962L-95.38222384107196,-6.169685683952763z" style="fill:rgb(153,221,255); fill-opacity: 0.4"></path><path d="M-97.17283314931007,-4.465049848185452L-54.55666158158019,1.5035924322502465" style="fill:none;stroke:rgb(0,0,0);stroke-width:1;stroke-linecap:round"></path><path d="M-97.17283314931005,0.18970247345491506L-95.38222384107196,-1.5149333623123962L-52.76605227334208,4.453708918123302z" style="fill:rgb(153,221,255); fill-opacity: 0.4"></path><path d="M22.464621220223624,12.042856525427034L-29.309306307609894,4.791617347930403M-29.309306307609894,-25.890992701392854L-29.309306307609894,4.791617347930403M-29.309306307609894,4.791617347930403L-41.11241920363534,16.02802113719127" style="fill:none;stroke:rgb(0,0,0);stroke-width:1;stroke-linecap:round"></path><path d="M-97.17283314931005,-4.465049848185452L-54.55666158158018,1.5035924322502459L-95.38222384107196,-6.169685683952763zM-97.17283314931005,-4.465049848185452L-97.17283314931005,0.18970247345491506L-54.55666158158018,1.5035924322502459z" style="fill:rgb(153,221,255); fill-opacity: 0.4"></path><path d="M-135.12163839384684,-33.53239493585911L-135.12163839384684,16.84734759820486M-135.12163839384684,16.84734759820486L-124.86417153101291,18.283965392705166" style="fill:none;stroke:rgb(0,0,0);stroke-width:1;stroke-linecap:round"></path><path d="M-89.32496274605452,-1.6933594755152748L-103.67609962753357,11.968728674938085L-103.67609962753357,-25.337559977706945z" style="fill:rgb(238,238,238); fill-opacity: 0.4"></path><path d="M-52.76605227334208,-0.2010434035170654L-52.76605227334208,4.453708918123302L-95.38222384107196,-6.169685683952763z" style="fill:rgb(153,221,255); fill-opacity: 0.4"></path><path d="M-124.86417153101291,-32.09577714135881L-124.86417153101291,18.283965392705163L-105.48388452653862,-50.54554816806549z" style="fill:rgb(238,238,238); fill-opacity: 0.4"></path><path d="M-46.70879117832466,-33.03100584772461L-61.05992805980371,-19.368917697271247" style="fill:none;stroke:rgb(0,0,0);stroke-width:1;stroke-linecap:round"></path><path d="M-54.55666158158018,6.158344753890613L-97.17283314931005,0.18970247345491506L-52.76605227334208,4.453708918123302zM-54.55666158158018,1.5035924322502459L-52.76605227334208,-0.2010434035170654L-95.38222384107196,-6.169685683952763z" style="fill:rgb(153,221,255); fill-opacity: 0.4"></path><path d="M-124.86417153101291,-32.0957771413588L-124.86417153101291,18.283965392705166" style="fill:none;stroke:rgb(0,0,0);stroke-width:1;stroke-linecap:round"></path><path d="M-61.05992805980371,17.937370955373783L-46.70879117832465,4.2752828049204235L-46.70879117832465,-33.031005847724614z" style="fill:rgb(238,238,238); fill-opacity: 0.4"></path><path d="M-97.17283314931005,0.18970247345491506L-54.55666158158018,6.158344753890613L-54.55666158158018,1.5035924322502459z" style="fill:rgb(153,221,255); fill-opacity: 0.4"></path><path d="M-52.76605227334209,-0.20104340351706468L-52.76605227334209,4.453708918123302M-52.76605227334209,4.453708918123302L-54.55666158158019,6.158344753890613M-52.7660514200717,-0.20104374043059298L-52.7660514200717,4.453708581209774M-52.7660514200717,4.453708581209774L-54.55666077100124,6.158344457618771M-52.7660514200717,4.453708581209774L-35.02745284883957,3.7252007276148213" style="fill:none;stroke:rgb(0,0,0);stroke-width:1;stroke-linecap:round"></path><path d="M-135.1216383938468,-33.53239493585912L-124.86417153101291,-32.09577714135881L-115.74135138937253,-51.982165962565794zM-61.05992805980371,17.937370955373783L-103.67609962753357,11.968728674938085L-46.70879117832465,4.2752828049204235z" style="fill:rgb(238,238,238); fill-opacity: 0.4"></path><path d="M-52.76605227334209,-0.20104340351706468L-54.55666158158019,1.5035924322502465M-52.7660514200717,-0.20104374043059298L-54.55666077100124,1.5035921359784041M-52.7660514200717,-0.20104374043059298L-35.02745284883957,3.7252007276148213" style="fill:none;stroke:rgb(0,0,0);stroke-width:1;stroke-linecap:round"></path><path d="M-52.76605241039322,-0.2010434227118724L-52.76605241039322,4.453708898928494L-54.55666171863132,6.158344734695806z" style="fill:rgb(255,187,187); fill-opacity: 0.4"></path><path d="M-54.55666158158018,6.158344753890613L-52.76605227334208,4.453708918123302L-52.76605227334208,-0.2010434035170654z" style="fill:rgb(153,221,255); fill-opacity: 0.4"></path><path d="M-103.67609962753357,-25.33755997770695L-103.67609962753357,11.968728674938085M-103.67609962753357,11.968728674938085L-61.05992805980371,17.937370955373787" style="fill:none;stroke:rgb(0,0,0);stroke-width:1;stroke-linecap:round"></path><path d="M-52.76605241039322,-0.2010434227118724L-54.55666171863132,6.158344734695806L-54.55666171863132,1.5035924130554388z" style="fill:rgb(255,187,187); fill-opacity: 0.4"></path><path d="M-54.55666158158018,1.5035924322502459L-54.55666158158018,6.158344753890613L-52.76605227334208,-0.2010434035170654z" style="fill:rgb(153,221,255); fill-opacity: 0.4"></path><path d="M-52.76605241039322,4.453708898928494L-52.76605241039322,-0.2010434227118724L-35.027453804261626,3.725200423603337z" style="fill:rgb(255,187,187); fill-opacity: 0.4"></path><path d="M-61.05992805980371,-19.36891769727125L-46.70879117832465,-33.031005847724614L-89.32496274605452,-38.99964812816031zM22.464621220223624,12.042856525427034L-29.3093063076099,4.791617347930402L-29.3093063076099,-25.89099270139285z" style="fill:rgb(238,238,238); fill-opacity: 0.4"></path><path d="M-54.55666158158019,1.5035924322502465L-54.55666158158019,6.158344753890613M-54.55666077100124,6.158344457618771L-54.55666077100124,1.5035921359784041M-54.55666077100124,6.158344457618771L-35.02745284883957,3.7252007276148213" style="fill:none;stroke:rgb(0,0,0);stroke-width:1;stroke-linecap:round"></path><path d="M-135.1216383938468,16.84734759820486L-124.86417153101291,18.283965392705163L-124.86417153101291,-32.09577714135881z" style="fill:rgb(238,238,238); fill-opacity: 0.4"></path><path d="M-54.55666171863132,6.158344734695806L-52.76605241039322,4.453708898928494L-35.027453804261626,3.725200423603337z" style="fill:rgb(255,187,187); fill-opacity: 0.4"></path><path d="M-54.55666077100124,1.5035921359784041L-35.02745284883957,3.7252007276148213" style="fill:none;stroke:rgb(0,0,0);stroke-width:1;stroke-linecap:round"></path><path d="M-52.76605241039322,-0.2010434227118724L-54.55666171863132,1.5035924130554388L-35.027453804261626,3.725200423603337z" style="fill:rgb(255,187,187); fill-opacity: 0.4"></path><path d="M22.464621220223624,-18.639753523896218L-29.309306307609894,-25.890992701392854M-29.309306307609894,-25.890992701392854L-41.11241920363534,-14.654588912131981" style="fill:none;stroke:rgb(0,0,0);stroke-width:1;stroke-linecap:round"></path><path d="M-54.55666171863132,1.5035924130554388L-54.55666171863132,6.158344734695806L-35.027453804261626,3.725200423603337z" style="fill:rgb(255,187,187); fill-opacity: 0.4"></path><path d="M-41.11241920363535,16.028021137191274L-29.3093063076099,4.791617347930402L22.464621220223624,12.042856525427034zM-135.1216383938468,-33.53239493585912L-135.1216383938468,16.84734759820486L-124.86417153101291,-32.09577714135881zM-103.67609962753357,-25.337559977706945L-61.05992805980371,-19.36891769727125L-89.32496274605452,-38.99964812816031zM-29.3093063076099,-25.89099270139285L-29.3093063076099,4.791617347930402L-41.11241920363535,-14.654588912131981z" style="fill:rgb(238,238,238); fill-opacity: 0.4"></path><path d="M22.464621220223624,-18.639753523896218L22.464621220223624,12.042856525427034M22.464621220223624,12.042856525427034L10.661508324198175,23.279260314687907" style="fill:none;stroke:rgb(0,0,0);stroke-width:1;stroke-linecap:round"></path><path d="M22.464621220223624,-18.639753523896218L22.464621220223624,12.042856525427034L-29.3093063076099,-25.89099270139285z" style="fill:rgb(238,238,238); fill-opacity: 0.4"></path><path d="M-135.12163839384684,-33.53239493585911L-124.86417153101291,-32.0957771413588" style="fill:none;stroke:rgb(0,0,0);stroke-width:1;stroke-linecap:round"></path><path d="M-61.05992805980371,-19.36891769727125L-61.05992805980371,17.937370955373783L-46.70879117832465,-33.031005847724614zM-29.3093063076099,4.791617347930402L-41.11241920363535,16.028021137191274L-41.11241920363535,-14.654588912131981z" style="fill:rgb(238,238,238); fill-opacity: 0.4"></path><path d="M-103.67609962753357,-25.33755997770695L-61.05992805980371,-19.368917697271247" style="fill:none;stroke:rgb(0,0,0);stroke-width:1;stroke-linecap:round"></path><path d="M-103.67609962753357,-25.337559977706945L-103.67609962753357,11.968728674938085L-61.05992805980371,-19.36891769727125zM-103.67609962753357,11.968728674938085L-61.05992805980371,17.937370955373783L-61.05992805980371,-19.36891769727125z" style="fill:rgb(238,238,238); fill-opacity: 0.4"></path><path d="M-61.05992805980371,-19.368917697271247L-61.05992805980371,17.937370955373787M-41.11241920363534,-14.654588912131981L-41.11241920363534,16.02802113719127M-41.11241920363534,16.02802113719127L10.661508324198175,23.279260314687907M95.38903647858034,20.283436567940193L39.82938480973555,12.501984742547801M39.82938480973555,-11.376423765857584L39.82938480973555,12.501984742547801M39.82938480973555,12.501984742547801L30.64374020684624,21.246594129234683M22.464621220223624,-18.639753523896218L10.661508324198175,-7.40334973463535M12.62629241930443,4.231433378237408L-39.14763510852909,-3.0198057992592235M-39.14763510852909,-5.812657192243443L-39.14763510852909,-3.0198057992592235M-39.14763510852909,-3.0198057992592235L-40.22200069347194,-1.9970242977988368" style="fill:none;stroke:rgb(0,0,0);stroke-width:1;stroke-linecap:round"></path><path d="M10.661508324198175,23.279260314687907L-41.11241920363535,16.028021137191274L22.464621220223624,12.042856525427034z" style="fill:rgb(238,238,238); fill-opacity: 0.4"></path><path d="M12.62629241930443,1.4385819852531878L-39.14763510852909,-5.812657192243443M-39.14763510852909,-5.812657192243443L-40.22200069347194,-4.789875690783056" style="fill:none;stroke:rgb(0,0,0);stroke-width:1;stroke-linecap:round"></path><path d="M10.661508324198175,23.279260314687907L22.464621220223624,12.042856525427034L22.464621220223624,-18.639753523896218z" style="fill:rgb(238,238,238); fill-opacity: 0.4"></path><path d="M-39.147635108529094,-5.812657192243444L-39.147635108529094,-3.0198057992592235L-40.22200069347195,-4.789875690783058zM-39.147635108529094,-3.0198057992592235L-40.22200069347195,-1.9970242977988375L-40.22200069347195,-4.789875690783058z" style="fill:rgb(153,221,255); fill-opacity: 0.4"></path><path d="M-40.22200069347194,-4.789875690783056L-40.22200069347194,-1.9970242977988368M-40.22200069347194,-1.9970242977988368L11.551926834361577,5.254214879697794" style="fill:none;stroke:rgb(0,0,0);stroke-width:1;stroke-linecap:round"></path><path d="M10.661508324198175,-7.403349734635349L22.464621220223624,-18.639753523896218L-29.3093063076099,-25.89099270139285z" style="fill:rgb(238,238,238); fill-opacity: 0.4"></path><path d="M-40.22200069347194,-4.789875690783056L11.551926834361577,2.4613634867135747" style="fill:none;stroke:rgb(0,0,0);stroke-width:1;stroke-linecap:round"></path><path d="M12.626292419304434,4.231433378237408L-39.147635108529094,-3.0198057992592235L-39.147635108529094,-5.812657192243444z" style="fill:rgb(153,221,255); fill-opacity: 0.4"></path><path d="M-41.11241920363535,-14.654588912131981L10.661508324198175,-7.403349734635349L-29.3093063076099,-25.89099270139285z" style="fill:rgb(238,238,238); fill-opacity: 0.4"></path><path d="M-40.22200069347195,-1.9970242977988375L-39.147635108529094,-3.0198057992592235L12.626292419304434,4.231433378237408z" style="fill:rgb(153,221,255); fill-opacity: 0.4"></path><path d="M95.38903647858034,-3.594971940465196L39.82938480973555,-11.376423765857584M39.82938480973555,-11.376423765857584L30.64374020684624,-2.6318143791707067" style="fill:none;stroke:rgb(0,0,0);stroke-width:1;stroke-linecap:round"></path><path d="M95.38903647858035,20.283436567940193L39.82938480973556,12.501984742547801L39.82938480973556,-11.376423765857584z" style="fill:rgb(238,238,238); fill-opacity: 0.4"></path><path d="M-40.22200069347195,-4.789875690783058L11.551926834361579,2.4613634867135734L-39.147635108529094,-5.812657192243444zM-40.22200069347195,-4.789875690783058L-40.22200069347195,-1.9970242977988375L11.551926834361579,2.4613634867135734z" style="fill:rgb(153,221,255); fill-opacity: 0.4"></path><path d="M-41.11241920363534,-14.654588912131981L10.661508324198175,-7.40334973463535" style="fill:none;stroke:rgb(0,0,0);stroke-width:1;stroke-linecap:round"></path><path d="M-41.11241920363535,-14.654588912131981L-41.11241920363535,16.028021137191274L10.661508324198175,-7.403349734635349zM39.82938480973556,-11.376423765857584L39.82938480973556,12.501984742547801L30.643740206846246,-2.6318143791707067z" style="fill:rgb(238,238,238); fill-opacity: 0.4"></path><path d="M12.626292419304434,1.4385819852531876L12.626292419304434,4.231433378237408L-39.147635108529094,-5.812657192243444z" style="fill:rgb(153,221,255); fill-opacity: 0.4"></path><path d="M30.643740206846246,21.246594129234683L39.82938480973556,12.501984742547801L95.38903647858035,20.283436567940193z" style="fill:rgb(238,238,238); fill-opacity: 0.4"></path><path d="M92.3290066229741,5.108259308818404L36.76935495412932,-2.6731925165739856M36.76935495412932,-5.466043909558205L36.76935495412932,-2.6731925165739856M36.76935495412932,-2.6731925165739856L35.694989369186466,-1.6504110151135984" style="fill:none;stroke:rgb(0,0,0);stroke-width:1;stroke-linecap:round"></path><path d="M11.551926834361579,5.254214879697793L-40.22200069347195,-1.9970242977988375L12.626292419304434,4.231433378237408zM11.551926834361579,2.4613634867135734L12.626292419304434,1.4385819852531876L-39.147635108529094,-5.812657192243444z" style="fill:rgb(153,221,255); fill-opacity: 0.4"></path><path d="M-41.11241920363535,16.028021137191274L10.661508324198175,23.279260314687907L10.661508324198175,-7.403349734635349z" style="fill:rgb(238,238,238); fill-opacity: 0.4"></path><path d="M92.3290066229741,2.315407915834185L36.76935495412932,-5.466043909558205M36.76935495412932,-5.466043909558205L35.694989369186466,-4.4432624080978185" style="fill:none;stroke:rgb(0,0,0);stroke-width:1;stroke-linecap:round"></path><path d="M10.661508324198175,-7.403349734635349L10.661508324198175,23.279260314687907L22.464621220223624,-18.639753523896218z" style="fill:rgb(238,238,238); fill-opacity: 0.4"></path><path d="M36.76935495412933,-5.466043909558204L36.76935495412933,-2.673192516573984L35.69498936918647,-4.443262408097817zM-40.22200069347195,-1.9970242977988375L11.551926834361579,5.254214879697793L11.551926834361579,2.4613634867135734zM36.76935495412933,-2.673192516573984L35.69498936918647,-1.650411015113597L35.69498936918647,-4.443262408097817z" style="fill:rgb(153,221,255); fill-opacity: 0.4"></path><path d="M35.694989369186466,-4.4432624080978185L35.694989369186466,-1.6504110151135984M35.694989369186466,-1.6504110151135984L91.25464103803125,6.131040810278791M10.661508324198175,-7.40334973463535L10.661508324198175,23.279260314687907" style="fill:none;stroke:rgb(0,0,0);stroke-width:1;stroke-linecap:round"></path><path d="M39.82938480973556,12.501984742547801L30.643740206846246,21.246594129234683L30.643740206846246,-2.6318143791707067z" style="fill:rgb(238,238,238); fill-opacity: 0.4"></path><path d="M35.694989369186466,-4.4432624080978185L91.25464103803125,3.3381894172945716M12.62629241930443,1.4385819852531878L12.62629241930443,4.231433378237408M12.62629241930443,4.231433378237408L11.551926834361577,5.254214879697794M12.626291511774022,1.4385819145432306L12.626291511774022,4.231433418505394M12.626291511774022,4.231433418505394L11.551925926831167,5.25421491996578M12.626291511774022,4.231433418505394L31.754755566384446,5.734060664394378" style="fill:none;stroke:rgb(0,0,0);stroke-width:1;stroke-linecap:round"></path><path d="M95.38903647858035,-3.594971940465197L95.38903647858035,20.283436567940193L39.82938480973556,-11.376423765857584z" style="fill:rgb(238,238,238); fill-opacity: 0.4"></path><path d="M95.38903647858034,-3.594971940465196L95.38903647858034,20.283436567940193M95.38903647858034,20.283436567940193L86.20339187569103,29.02804595462707M12.62629241930443,1.4385819852531878L11.551926834361577,2.4613634867135747M12.626291511774022,1.4385819145432306L11.551925926831167,2.4613634160036173M12.626291511774022,1.4385819145432306L31.754755566384446,5.734060664394378" style="fill:none;stroke:rgb(0,0,0);stroke-width:1;stroke-linecap:round"></path><path d="M12.62629234817132,1.438581975290582L12.62629234817132,4.231433368274802L11.551926763228465,5.254214869735188z" style="fill:rgb(255,187,187); fill-opacity: 0.4"></path><path d="M11.551926834361579,5.254214879697793L12.626292419304434,4.231433378237408L12.626292419304434,1.4385819852531876zM92.32900662297412,5.108259308818405L36.76935495412933,-2.673192516573984L36.76935495412933,-5.466043909558204z" style="fill:rgb(153,221,255); fill-opacity: 0.4"></path><path d="M12.62629234817132,4.231433368274802L12.62629234817132,1.438581975290582L31.754754619620524,5.73406046344849zM12.62629234817132,1.438581975290582L11.551926763228465,5.254214869735188L11.551926763228465,2.461363476750968z" style="fill:rgb(255,187,187); fill-opacity: 0.4"></path><path d="M11.551926834361579,2.4613634867135734L11.551926834361579,5.254214879697793L12.626292419304434,1.4385819852531876zM35.69498936918647,-1.650411015113597L36.76935495412933,-2.673192516573984L92.32900662297412,5.108259308818405z" style="fill:rgb(153,221,255); fill-opacity: 0.4"></path><path d="M11.551926834361577,2.4613634867135747L11.551926834361577,5.254214879697794M11.551925926831167,5.25421491996578L11.551925926831167,2.4613634160036173M11.551925926831167,5.25421491996578L31.754755566384446,5.734060664394378" style="fill:none;stroke:rgb(0,0,0);stroke-width:1;stroke-linecap:round"></path><path d="M11.551926763228465,5.254214869735188L12.62629234817132,4.231433368274802L31.754754619620524,5.73406046344849z" style="fill:rgb(255,187,187); fill-opacity: 0.4"></path><path d="M30.64374020684624,-2.6318143791707067L30.64374020684624,21.246594129234683M30.64374020684624,21.246594129234683L86.20339187569103,29.02804595462707" style="fill:none;stroke:rgb(0,0,0);stroke-width:1;stroke-linecap:round"></path><path d="M12.62629234817132,1.438581975290582L11.551926763228465,2.461363476750968L31.754754619620524,5.73406046344849z" style="fill:rgb(255,187,187); fill-opacity: 0.4"></path><path d="M11.551925926831167,2.4613634160036173L31.754755566384446,5.734060664394378" style="fill:none;stroke:rgb(0,0,0);stroke-width:1;stroke-linecap:round"></path><path d="M11.551926763228465,2.461363476750968L11.551926763228465,5.254214869735188L31.754754619620524,5.73406046344849z" style="fill:rgb(255,187,187); fill-opacity: 0.4"></path><path d="M35.69498936918647,-4.443262408097817L91.25464103803127,3.3381894172945725L36.76935495412933,-5.466043909558204zM35.69498936918647,-4.443262408097817L35.69498936918647,-1.650411015113597L91.25464103803127,3.3381894172945725z" style="fill:rgb(153,221,255); fill-opacity: 0.4"></path><path d="M169.62218669022562,30.680220292611164L114.0625350213808,22.89876846721878M114.0625350213808,-0.9796400411866081L114.0625350213808,22.89876846721878M114.0625350213808,22.89876846721878L104.87689041849148,31.64337785390566" style="fill:none;stroke:rgb(0,0,0);stroke-width:1;stroke-linecap:round"></path><path d="M86.20339187569104,29.02804595462707L30.643740206846246,21.246594129234683L95.38903647858035,20.283436567940193z" style="fill:rgb(238,238,238); fill-opacity: 0.4"></path><path d="M92.32900662297412,2.315407915834185L92.32900662297412,5.108259308818405L36.76935495412933,-5.466043909558204z" style="fill:rgb(153,221,255); fill-opacity: 0.4"></path><path d="M95.38903647858034,-3.594971940465196L86.20339187569103,5.149637446221683" style="fill:none;stroke:rgb(0,0,0);stroke-width:1;stroke-linecap:round"></path><path d="M91.25464103803127,6.131040810278792L35.69498936918647,-1.650411015113597L92.32900662297412,5.108259308818405zM91.25464103803127,3.3381894172945725L92.32900662297412,2.315407915834185L36.76935495412933,-5.466043909558204z" style="fill:rgb(153,221,255); fill-opacity: 0.4"></path><path d="M86.20339187569104,5.149637446221683L95.38903647858035,-3.594971940465197L39.82938480973556,-11.376423765857584zM86.20339187569104,29.02804595462707L95.38903647858035,20.283436567940193L95.38903647858035,-3.594971940465197z" style="fill:rgb(238,238,238); fill-opacity: 0.4"></path><path d="M35.69498936918647,-1.650411015113597L91.25464103803127,6.131040810278792L91.25464103803127,3.3381894172945725z" style="fill:rgb(153,221,255); fill-opacity: 0.4"></path><path d="M30.643740206846246,-2.6318143791707067L86.20339187569104,5.149637446221683L39.82938480973556,-11.376423765857584z" style="fill:rgb(238,238,238); fill-opacity: 0.4"></path><path d="M30.64374020684624,-2.6318143791707067L86.20339187569103,5.149637446221683M92.3290066229741,2.315407915834185L92.3290066229741,5.108259308818404M92.3290066229741,5.108259308818404L91.25464103803125,6.131040810278791M92.3290104774707,2.315408457704011L92.3290104774707,5.108259850688231M92.3290104774707,5.108259850688231L91.25464497791076,6.131041270865247M92.3290104774707,5.108259850688231L110.46532484200799,6.838556516874982" style="fill:none;stroke:rgb(0,0,0);stroke-width:1;stroke-linecap:round"></path><path d="M30.643740206846246,-2.6318143791707067L30.643740206846246,21.246594129234683L86.20339187569104,5.149637446221683z" style="fill:rgb(238,238,238); fill-opacity: 0.4"></path><path d="M92.3290066229741,2.315407915834185L91.25464103803125,3.3381894172945716M92.3290104774707,2.315408457704011L91.25464497791076,3.338189877881027M92.3290104774707,2.315408457704011L110.46532484200799,6.838556516874982" style="fill:none;stroke:rgb(0,0,0);stroke-width:1;stroke-linecap:round"></path><path d="M91.25464103803127,6.131040810278792L92.32900662297412,5.108259308818405L92.32900662297412,2.315407915834185z" style="fill:rgb(153,221,255); fill-opacity: 0.4"></path><path d="M92.32900735856141,2.3154080188574584L92.32900735856141,5.108259411841678L91.25464177361856,6.131040913302066z" style="fill:rgb(255,187,187); fill-opacity: 0.4"></path><path d="M169.62218669022562,6.80181178420578L114.0625350213808,-0.9796400411866081M114.0625350213808,-0.9796400411866081L104.87689041849148,7.76496934550027" style="fill:none;stroke:rgb(0,0,0);stroke-width:1;stroke-linecap:round"></path><path d="M169.6221866902256,30.680220292611164L114.06253502138078,22.898768467218783L114.06253502138078,-0.9796400411866086z" style="fill:rgb(238,238,238); fill-opacity: 0.4"></path><path d="M91.25464103803127,3.3381894172945725L91.25464103803127,6.131040810278792L92.32900662297412,2.315407915834185z" style="fill:rgb(153,221,255); fill-opacity: 0.4"></path><path d="M92.32900735856141,2.3154080188574584L91.25464177361856,6.131040913302066L91.25464177361856,3.338189520317846z" style="fill:rgb(255,187,187); fill-opacity: 0.4"></path><path d="M91.25464103803125,3.3381894172945716L91.25464103803125,6.131040810278791M91.25464497791076,6.131041270865247L91.25464497791076,3.338189877881027M91.25464497791076,6.131041270865247L110.46532484200799,6.838556516874982" style="fill:none;stroke:rgb(0,0,0);stroke-width:1;stroke-linecap:round"></path><path d="M92.32900735856141,5.108259411841678L92.32900735856141,2.3154080188574584L110.4653216377158,6.838556159311799z" style="fill:rgb(255,187,187); fill-opacity: 0.4"></path><path d="M91.25464497791076,3.338189877881027L110.46532484200799,6.838556516874982" style="fill:none;stroke:rgb(0,0,0);stroke-width:1;stroke-linecap:round"></path><path d="M91.25464177361856,6.131040913302066L92.32900735856141,5.108259411841678L110.4653216377158,6.838556159311799z" style="fill:rgb(255,187,187); fill-opacity: 0.4"></path><path d="M30.643740206846246,21.246594129234683L86.20339187569104,29.02804595462707L86.20339187569104,5.149637446221683z" style="fill:rgb(238,238,238); fill-opacity: 0.4"></path><path d="M92.32900735856141,2.3154080188574584L91.25464177361856,3.338189520317846L110.4653216377158,6.838556159311799zM91.25464177361856,3.338189520317846L91.25464177361856,6.131040913302066L110.4653216377158,6.838556159311799z" style="fill:rgb(255,187,187); fill-opacity: 0.4"></path><path d="M114.06253502138078,-0.9796400411866086L114.06253502138078,22.898768467218783L104.87689041849147,7.764969345500272zM104.87689041849147,31.643377853905655L114.06253502138078,22.898768467218783L169.6221866902256,30.680220292611164zM86.20339187569104,5.149637446221683L86.20339187569104,29.02804595462707L95.38903647858035,-3.594971940465197z" style="fill:rgb(238,238,238); fill-opacity: 0.4"></path><path d="M86.20339187569103,5.149637446221683L86.20339187569103,29.02804595462707M164.62426394423352,24.566032225911865L109.06461227538874,16.784580400519474M109.06461227538874,13.991729007535255L109.06461227538874,16.784580400519474M109.06461227538874,16.784580400519474L107.99024669044589,17.80736190197986M164.62426394423352,21.773180832927643L109.06461227538874,13.991729007535255M109.06461227538874,13.991729007535255L107.99024669044589,15.014510508995643" style="fill:none;stroke:rgb(0,0,0);stroke-width:1;stroke-linecap:round"></path><path d="M114.06253502138078,22.898768467218783L104.87689041849147,31.643377853905655L104.87689041849147,7.764969345500272z" style="fill:rgb(238,238,238); fill-opacity: 0.4"></path><path d="M109.06461227538873,13.991729007535255L109.06461227538873,16.784580400519474L107.99024669044586,15.014510508995643zM109.06461227538873,16.784580400519474L107.99024669044586,17.80736190197986L107.99024669044586,15.014510508995643z" style="fill:rgb(153,221,255); fill-opacity: 0.4"></path><path d="M107.99024669044589,15.014510508995643L107.99024669044589,17.80736190197986M107.99024669044589,17.80736190197986L163.54989835929067,25.58881372737225" style="fill:none;stroke:rgb(0,0,0);stroke-width:1;stroke-linecap:round"></path><path d="M169.6221866902256,6.801811784205782L169.6221866902256,30.680220292611164L114.06253502138078,-0.9796400411866086z" style="fill:rgb(238,238,238); fill-opacity: 0.4"></path><path d="M169.62218669022562,6.80181178420578L169.62218669022562,30.680220292611164M169.62218669022562,30.680220292611164L160.4365420873363,39.42482967929805M107.99024669044589,15.014510508995643L163.54989835929067,22.795962334388033M104.87689041849148,7.76496934550027L104.87689041849148,31.64337785390566M104.87689041849148,31.64337785390566L160.4365420873363,39.42482967929805" style="fill:none;stroke:rgb(0,0,0);stroke-width:1;stroke-linecap:round"></path><path d="M164.62426394423352,24.566032225911865L109.06461227538873,16.784580400519474L109.06461227538873,13.991729007535255zM107.99024669044586,17.80736190197986L109.06461227538873,16.784580400519474L164.62426394423352,24.566032225911865zM107.99024669044586,15.014510508995643L163.54989835929067,22.795962334388033L109.06461227538873,13.991729007535255zM107.99024669044586,15.014510508995643L107.99024669044586,17.80736190197986L163.54989835929067,22.795962334388033z" style="fill:rgb(153,221,255); fill-opacity: 0.4"></path><path d="M240.0696119541391,40.546791256400496L188.2956844263056,33.295552078903874M188.2956844263056,9.41714357049848L188.2956844263056,33.295552078903874M188.2956844263056,33.295552078903874L179.1100398234163,42.04016146559075" style="fill:none;stroke:rgb(0,0,0);stroke-width:1;stroke-linecap:round"></path><path d="M160.4365420873363,39.42482967929805L104.87689041849147,31.643377853905655L169.6221866902256,30.680220292611164z" style="fill:rgb(238,238,238); fill-opacity: 0.4"></path><path d="M169.62218669022562,6.80181178420578L160.4365420873363,15.54642117089266" style="fill:none;stroke:rgb(0,0,0);stroke-width:1;stroke-linecap:round"></path><path d="M160.4365420873363,15.546421170892662L169.6221866902256,6.801811784205782L114.06253502138078,-0.9796400411866086z" style="fill:rgb(238,238,238); fill-opacity: 0.4"></path><path d="M164.62426394423352,21.773180832927643L164.62426394423352,24.566032225911865L109.06461227538873,13.991729007535255z" style="fill:rgb(153,221,255); fill-opacity: 0.4"></path><path d="M160.4365420873363,39.42482967929805L169.6221866902256,30.680220292611164L169.6221866902256,6.801811784205782zM104.87689041849147,7.764969345500272L160.4365420873363,15.546421170892662L114.06253502138078,-0.9796400411866086z" style="fill:rgb(238,238,238); fill-opacity: 0.4"></path><path d="M163.54989835929067,25.58881372737225L107.99024669044586,17.80736190197986L164.62426394423352,24.566032225911865zM163.54989835929067,22.795962334388033L164.62426394423352,21.773180832927643L109.06461227538873,13.991729007535255z" style="fill:rgb(153,221,255); fill-opacity: 0.4"></path><path d="M104.87689041849148,7.76496934550027L160.4365420873363,15.54642117089266" style="fill:none;stroke:rgb(0,0,0);stroke-width:1;stroke-linecap:round"></path><path d="M107.99024669044586,17.80736190197986L163.54989835929067,25.58881372737225L163.54989835929067,22.795962334388033z" style="fill:rgb(153,221,255); fill-opacity: 0.4"></path><path d="M104.87689041849147,7.764969345500272L104.87689041849147,31.643377853905655L160.4365420873363,15.546421170892662zM240.0696119541391,40.546791256400496L188.29568442630557,33.295552078903874L188.29568442630557,9.417143570498485z" style="fill:rgb(238,238,238); fill-opacity: 0.4"></path><path d="M240.0696119541391,16.668382747995114L188.2956844263056,9.41714357049848M188.2956844263056,9.41714357049848L179.1100398234163,18.16175295718536M164.62426394423352,21.773180832927643L164.62426394423352,24.566032225911865M164.62426394423352,24.566032225911865L163.54989835929067,25.58881372737225M164.62426640438784,21.773181173583332L164.62426640438784,24.56603256656755M164.62426640438784,24.56603256656755L163.54990086213644,25.588814027386253M164.62426640438784,24.56603256656755L182.76058064085075,26.296329354679358M164.62426394423352,21.773180832927643L163.54989835929067,22.795962334388033M164.62426640438784,21.773181173583332L163.54990086213644,22.79596263440203M164.62426640438784,21.773181173583332L182.76058064085075,26.296329354679358" style="fill:none;stroke:rgb(0,0,0);stroke-width:1;stroke-linecap:round"></path><path d="M163.54989835929067,25.58881372737225L164.62426394423352,24.566032225911865L164.62426394423352,21.773180832927643z" style="fill:rgb(153,221,255); fill-opacity: 0.4"></path><path d="M164.6242646798208,21.77318093595092L164.6242646798208,24.566032328935137L163.54989909487796,25.588813830395523z" style="fill:rgb(255,187,187); fill-opacity: 0.4"></path><path d="M104.87689041849147,31.643377853905655L160.4365420873363,39.42482967929805L160.4365420873363,15.546421170892662z" style="fill:rgb(238,238,238); fill-opacity: 0.4"></path><path d="M163.54989835929067,22.795962334388033L163.54989835929067,25.58881372737225L164.62426394423352,21.773180832927643z" style="fill:rgb(153,221,255); fill-opacity: 0.4"></path><path d="M164.6242646798208,21.77318093595092L163.54989909487796,25.588813830395523L163.54989909487796,22.795962437411305z" style="fill:rgb(255,187,187); fill-opacity: 0.4"></path><path d="M163.54989835929067,22.795962334388033L163.54989835929067,25.58881372737225M163.54990086213644,25.588814027386253L163.54990086213644,22.79596263440203M163.54990086213644,25.588814027386253L182.76058064085075,26.296329354679358" style="fill:none;stroke:rgb(0,0,0);stroke-width:1;stroke-linecap:round"></path><path d="M164.6242646798208,24.566032328935137L164.6242646798208,21.77318093595092L182.7605789589752,26.296329076405257z" style="fill:rgb(255,187,187); fill-opacity: 0.4"></path><path d="M163.54990086213644,22.79596263440203L182.76058064085075,26.296329354679358" style="fill:none;stroke:rgb(0,0,0);stroke-width:1;stroke-linecap:round"></path><path d="M163.54989909487796,25.588813830395523L164.6242646798208,24.566032328935137L182.7605789589752,26.296329076405257z" style="fill:rgb(255,187,187); fill-opacity: 0.4"></path><path d="M179.1100398234163,42.04016146559075L188.29568442630557,33.295552078903874L240.0696119541391,40.546791256400496zM188.29568442630557,9.417143570498485L188.29568442630557,33.295552078903874L179.1100398234163,18.161752957185364z" style="fill:rgb(238,238,238); fill-opacity: 0.4"></path><path d="M164.6242646798208,21.77318093595092L163.54989909487796,22.795962437411305L182.7605789589752,26.296329076405257z" style="fill:rgb(255,187,187); fill-opacity: 0.4"></path><path d="M160.4365420873363,15.546421170892662L160.4365420873363,39.42482967929805L169.6221866902256,6.801811784205782z" style="fill:rgb(238,238,238); fill-opacity: 0.4"></path><path d="M163.54989909487796,22.795962437411305L163.54989909487796,25.588813830395523L182.7605789589752,26.296329076405257z" style="fill:rgb(255,187,187); fill-opacity: 0.4"></path><path d="M160.4365420873363,15.54642117089266L160.4365420873363,39.42482967929805" style="fill:none;stroke:rgb(0,0,0);stroke-width:1;stroke-linecap:round"></path><path d="M188.29568442630557,33.295552078903874L179.1100398234163,42.04016146559075L179.1100398234163,18.161752957185364z" style="fill:rgb(238,238,238); fill-opacity: 0.4"></path><path d="M240.0696119541391,16.668382747995114L240.0696119541391,40.546791256400496M240.0696119541391,40.546791256400496L230.8839673512498,49.29140064308738" style="fill:none;stroke:rgb(0,0,0);stroke-width:1;stroke-linecap:round"></path><path d="M240.0696119541391,16.668382747995118L240.0696119541391,40.546791256400496L188.29568442630557,9.417143570498485z" style="fill:rgb(238,238,238); fill-opacity: 0.4"></path><path d="M179.1100398234163,18.16175295718536L179.1100398234163,42.04016146559075M179.1100398234163,42.04016146559075L230.8839673512498,49.29140064308738M265.0990538437727,71.26398155211697L258.6273129027935,70.35757665492989M258.6273129027935,-0.6238520584833689L258.6273129027935,70.35757665492989M258.6273129027935,70.35757665492989L256.1450013089933,72.72070370831048" style="fill:none;stroke:rgb(0,0,0);stroke-width:1;stroke-linecap:round"></path><path d="M230.8839673512498,49.29140064308738L179.1100398234163,42.04016146559075L240.0696119541391,40.546791256400496z" style="fill:rgb(238,238,238); fill-opacity: 0.4"></path><path d="M265.0990538437727,0.28255283870370734L265.0990538437727,71.26398155211697M265.0990538437727,71.26398155211697L262.6167422499725,73.62710860549758M240.0696119541391,16.668382747995114L230.8839673512498,25.412992134681993" style="fill:none;stroke:rgb(0,0,0);stroke-width:1;stroke-linecap:round"></path><path d="M256.1450013089933,72.7207037083105L258.62731290279356,70.3575766549299L265.09905384377277,71.26398155211697zM230.8839673512498,49.29140064308738L240.0696119541391,40.546791256400496L240.0696119541391,16.668382747995118zM230.8839673512498,25.412992134681996L240.0696119541391,16.668382747995118L188.29568442630557,9.417143570498485zM179.1100398234163,18.161752957185364L230.8839673512498,25.412992134681996L188.29568442630557,9.417143570498485zM262.6167422499725,73.62710860549758L256.1450013089933,72.7207037083105L265.09905384377277,71.26398155211697z" style="fill:rgb(238,238,238); fill-opacity: 0.4"></path><path d="M256.1450013089933,1.739274994897235L256.1450013089933,72.72070370831048M256.1450013089933,72.72070370831048L262.6167422499725,73.62710860549758M179.1100398234163,18.16175295718536L230.8839673512498,25.412992134681993M262.6167422499725,2.645679892084311L262.6167422499725,73.62710860549758M290.24429183859445,74.78571814004545L283.77255089761525,73.87931324285836M283.77255089761525,2.897884529445102L283.77255089761525,73.87931324285836M283.77255089761525,73.87931324285836L281.29023930381504,76.24244029623895" style="fill:none;stroke:rgb(0,0,0);stroke-width:1;stroke-linecap:round"></path><path d="M179.1100398234163,18.161752957185364L179.1100398234163,42.04016146559075L230.8839673512498,25.412992134681996zM265.09905384377277,71.26398155211697L258.62731290279356,70.3575766549299L258.62731290279356,-0.6238520584833666z" style="fill:rgb(238,238,238); fill-opacity: 0.4"></path><path d="M239.64633489674054,33.563860717588454L250.2279832373285,35.04588201041994M290.24429183859445,3.8042894266321783L290.24429183859445,74.78571814004545M290.24429183859445,74.78571814004545L287.76198024479424,77.14884519342604" style="fill:none;stroke:rgb(0,0,0);stroke-width:1;stroke-linecap:round"></path><path d="M281.290239303815,76.24244029623897L283.77255089761525,73.87931324285836L290.2442918385945,74.78571814004545zM179.1100398234163,42.04016146559075L230.8839673512498,49.29140064308738L230.8839673512498,25.412992134681996zM258.62731290279356,70.3575766549299L256.1450013089933,72.7207037083105L256.1450013089933,1.7392749948972372zM262.6167422499725,73.62710860549758L265.09905384377277,71.26398155211697L265.09905384377277,0.2825528387037156zM230.8839673512498,25.412992134681996L230.8839673512498,49.29140064308738L240.0696119541391,16.668382747995118zM287.76198024479424,77.14884519342604L281.290239303815,76.24244029623897L290.2442918385945,74.78571814004545z" style="fill:rgb(238,238,238); fill-opacity: 0.4"></path><path d="M281.29023930381504,5.261011582825706L281.29023930381504,76.24244029623895M281.29023930381504,76.24244029623895L287.76198024479424,77.14884519342604" style="fill:none;stroke:rgb(0,0,0);stroke-width:1;stroke-linecap:round"></path><path d="M249.376497890725,36.57568334549163L250.22798323732846,37.37325817124012L256.4524822612037,35.91765924149728z" style="fill:rgb(0,0,0)"></path><path d="M230.8839673512498,25.412992134681993L230.8839673512498,49.29140064308738" style="fill:none;stroke:rgb(0,0,0);stroke-width:1;stroke-linecap:round"></path><path d="M250.75423010189343,32.66201522959249L249.70173637276346,33.66397502022973L256.4524822612037,35.91765924149728zM249.70173637276346,33.66397502022973L249.376497890725,36.57568334549163L256.4524822612037,35.91765924149728z" style="fill:rgb(0,0,0)"></path><path d="M256.1450013089933,72.7207037083105L262.6167422499725,73.62710860549758L262.6167422499725,2.6456798920843196z" style="fill:rgb(238,238,238); fill-opacity: 0.4"></path><path d="M287.76198024479424,6.167416480012782L287.76198024479424,77.14884519342604" style="fill:none;stroke:rgb(0,0,0);stroke-width:1;stroke-linecap:round"></path><path d="M290.2442918385945,74.78571814004545L283.77255089761525,73.87931324285836L283.77255089761525,2.897884529445104z" style="fill:rgb(238,238,238); fill-opacity: 0.4"></path><path d="M315.3895298334162,74.97063029603432L308.917788892437,74.06422539884723M308.917788892437,9.756445549313158L308.917788892437,74.06422539884723M308.917788892437,74.06422539884723L306.4354772986368,76.42735245222784M264.7915728915622,37.08559730551692L275.3732212321502,38.5676185983484" style="fill:none;stroke:rgb(0,0,0);stroke-width:1;stroke-linecap:round"></path><path d="M265.09905384377277,0.2825528387037156L265.09905384377277,71.26398155211697L258.62731290279356,-0.6238520584833666zM258.62731290279356,-0.6238520584833666L258.62731290279356,70.3575766549299L256.1450013089933,1.7392749948972372z" style="fill:rgb(238,238,238); fill-opacity: 0.4"></path><path d="M315.3895298334162,10.662850446500235L315.3895298334162,74.97063029603432M315.3895298334162,74.97063029603432L312.907218239616,77.33375734941491" style="fill:none;stroke:rgb(0,0,0);stroke-width:1;stroke-linecap:round"></path><path d="M306.4354772986367,76.42735245222785L308.917788892437,74.06422539884724L315.3895298334162,74.97063029603432zM283.77255089761525,73.87931324285836L281.290239303815,76.24244029623897L281.290239303815,5.2610115828257085zM287.76198024479424,77.14884519342604L290.2442918385945,74.78571814004545L290.2442918385945,3.8042894266321805z" style="fill:rgb(238,238,238); fill-opacity: 0.4"></path><path d="M274.5217358855468,40.097419933420106L275.3732212321502,40.89499475916859L281.59772025602547,39.43939582942575zM275.89946809671517,36.18375181752096L274.84697436758523,37.1857116081582L281.59772025602547,39.43939582942575z" style="fill:rgb(0,0,0)"></path><path d="M312.90721823961593,77.33375734941492L306.4354772986367,76.42735245222785L315.3895298334162,74.97063029603432zM262.6167422499725,2.6456798920843196L262.6167422499725,73.62710860549758L265.09905384377277,0.2825528387037156z" style="fill:rgb(238,238,238); fill-opacity: 0.4"></path><path d="M306.4354772986368,12.119572602693761L306.4354772986368,76.42735245222784M306.4354772986368,76.42735245222784L312.907218239616,77.33375734941491" style="fill:none;stroke:rgb(0,0,0);stroke-width:1;stroke-linecap:round"></path><path d="M256.1450013089933,1.7392749948972372L256.1450013089933,72.7207037083105L262.6167422499725,2.6456798920843196z" style="fill:rgb(238,238,238); fill-opacity: 0.4"></path><path d="M274.84697436758523,37.1857116081582L274.5217358855468,40.097419933420106L281.59772025602547,39.43939582942575z" style="fill:rgb(0,0,0)"></path><path d="M281.290239303815,76.24244029623897L287.76198024479424,77.14884519342604L287.76198024479424,6.167416480012784z" style="fill:rgb(238,238,238); fill-opacity: 0.4"></path><path d="M312.907218239616,13.025977499880838L312.907218239616,77.33375734941491M265.0990538437727,0.28255283870370734L258.6273129027935,-0.6238520584833689M258.6273129027935,-0.6238520584833689L256.1450013089933,1.739274994897235" style="fill:none;stroke:rgb(0,0,0);stroke-width:1;stroke-linecap:round"></path><path d="M315.3895298334162,74.97063029603432L308.917788892437,74.06422539884724L308.917788892437,9.756445549313161z" style="fill:rgb(238,238,238); fill-opacity: 0.4"></path><path d="M289.936810886384,40.607333893445386L300.51845922697197,42.08935518627687" style="fill:none;stroke:rgb(0,0,0);stroke-width:1;stroke-linecap:round"></path><path d="M290.2442918385945,3.8042894266321805L290.2442918385945,74.78571814004545L283.77255089761525,2.897884529445104zM283.77255089761525,2.897884529445104L283.77255089761525,73.87931324285836L281.290239303815,5.2610115828257085z" style="fill:rgb(238,238,238); fill-opacity: 0.4"></path><path d="M265.0990538437727,0.28255283870370734L262.6167422499725,2.645679892084311" style="fill:none;stroke:rgb(0,0,0);stroke-width:1;stroke-linecap:round"></path><path d="M262.6167422499725,2.6456798920843196L265.09905384377277,0.2825528387037156L258.62731290279356,-0.6238520584833666zM308.917788892437,74.06422539884724L306.4354772986367,76.42735245222785L306.4354772986367,12.119572602693765zM312.90721823961593,77.33375734941492L315.3895298334162,74.97063029603432L315.3895298334162,10.662850446500244zM256.1450013089933,1.7392749948972372L262.6167422499725,2.6456798920843196L258.62731290279356,-0.6238520584833666z" style="fill:rgb(238,238,238); fill-opacity: 0.4"></path><path d="M299.6669738803685,43.61915652134857L300.51845922697197,44.416731347097056L306.74295825084727,42.961132417354214zM301.0447060915369,39.70548840544942L299.992212362407,40.70744819608666L306.74295825084727,42.961132417354214z" style="fill:rgb(0,0,0)"></path><path d="M256.1450013089933,1.739274994897235L262.6167422499725,2.645679892084311" style="fill:none;stroke:rgb(0,0,0);stroke-width:1;stroke-linecap:round"></path><path d="M287.76198024479424,6.167416480012784L287.76198024479424,77.14884519342604L290.2442918385945,3.8042894266321805zM281.290239303815,5.2610115828257085L281.290239303815,76.24244029623897L287.76198024479424,6.167416480012784z" style="fill:rgb(238,238,238); fill-opacity: 0.4"></path><path d="M299.992212362407,40.70744819608666L299.6669738803685,43.61915652134857L306.74295825084727,42.961132417354214z" style="fill:rgb(0,0,0)"></path><path d="M306.4354772986367,76.42735245222785L312.90721823961593,77.33375734941492L312.90721823961593,13.025977499880847z" style="fill:rgb(238,238,238); fill-opacity: 0.4"></path><path d="M290.24429183859445,3.8042894266321783L283.77255089761525,2.897884529445102M283.77255089761525,2.897884529445102L281.29023930381504,5.261011582825706" style="fill:none;stroke:rgb(0,0,0);stroke-width:1;stroke-linecap:round"></path><path d="M315.3895298334162,10.662850446500244L315.3895298334162,74.97063029603432L308.917788892437,9.756445549313161zM308.917788892437,9.756445549313161L308.917788892437,74.06422539884724L306.4354772986367,12.119572602693765z" style="fill:rgb(238,238,238); fill-opacity: 0.4"></path><path d="M290.24429183859445,3.8042894266321783L287.76198024479424,6.167416480012782" style="fill:none;stroke:rgb(0,0,0);stroke-width:1;stroke-linecap:round"></path><path d="M287.76198024479424,6.167416480012784L290.2442918385945,3.8042894266321805L283.77255089761525,2.897884529445104zM281.290239303815,5.2610115828257085L287.76198024479424,6.167416480012784L283.77255089761525,2.897884529445104zM312.90721823961593,13.025977499880847L312.90721823961593,77.33375734941492L315.3895298334162,10.662850446500244z" style="fill:rgb(238,238,238); fill-opacity: 0.4"></path><path d="M281.29023930381504,5.261011582825706L287.76198024479424,6.167416480012782" style="fill:none;stroke:rgb(0,0,0);stroke-width:1;stroke-linecap:round"></path><path d="M306.4354772986367,12.119572602693765L306.4354772986367,76.42735245222785L312.90721823961593,13.025977499880847z" style="fill:rgb(238,238,238); fill-opacity: 0.4"></path><path d="M315.3895298334162,10.662850446500235L308.917788892437,9.756445549313158M308.917788892437,9.756445549313158L306.4354772986368,12.119572602693761M315.3895298334162,10.662850446500235L312.907218239616,13.025977499880838" style="fill:none;stroke:rgb(0,0,0);stroke-width:1;stroke-linecap:round"></path><path d="M312.90721823961593,13.025977499880847L315.3895298334162,10.662850446500244L308.917788892437,9.756445549313161zM306.4354772986367,12.119572602693765L312.90721823961593,13.025977499880847L308.917788892437,9.756445549313161z" style="fill:rgb(238,238,238); fill-opacity: 0.4"></path><path d="M306.4354772986368,12.119572602693761L312.907218239616,13.025977499880838" style="fill:none;stroke:rgb(0,0,0);stroke-width:1;stroke-linecap:round"></path></svg>